Coordinates
version=1
nRows=23
nColumns=23
inDegrees=yes

Units are S.I. units (second, meters, Newtons, ...)
If the header above contains a line with 'inDegrees', this indicates whether rotational values are in degrees (yes) or radians (no).

endheader
time	pelvis_tilt	pelvis_list	pelvis_rotation	pelvis_tx	pelvis_ty	pelvis_tz	hip_flexion_r	hip_adduction_r	hip_rotation_r	knee_angle_r	knee_angle_r_beta	ankle_angle_r	subtalar_angle_r	mtp_angle_r	hip_flexion_l	hip_adduction_l	hip_rotation_l	knee_angle_l	knee_angle_l_beta	ankle_angle_l	subtalar_angle_l	mtp_angle_l
      7.50000000	     -8.11936461	      6.12705890	      6.33043894	      2.17707168	      1.00743835	      1.07754053	     -8.05482469	     -7.74497524	    -12.00002645	     58.50699990	      1.02113978	     -9.16213557	     -7.68600821	      0.00000000	     29.91244789	     11.61207636	     -5.42760811	     12.73987806	      0.22235282	      7.33549508	      8.01534960	      0.00000000
      7.50666667	     -7.99908927	      6.45013179	      7.17023766	      2.17518821	      1.00334247	      1.07655448	     -6.81079664	     -8.35439062	    -12.42275062	     62.74480879	      1.09510350	     -8.49759468	     -8.06586850	      0.00000000	     30.24144243	     12.24231875	     -5.28271404	     14.97143172	      0.26130078	      6.53611883	      7.31695510	      0.00000000
      7.51333333	     -7.61173609	      6.78810536	      7.98239667	      2.17334444	      0.99932407	      1.07569436	     -5.84731433	     -8.89087912	    -12.73770854	     66.81844381	      1.16620185	     -7.98751144	     -8.57606269	      0.00000000	     30.31686181	     12.84306077	     -4.97608562	     17.59744059	      0.30713328	      5.82549491	      6.42825350	      0.00000000
      7.52000000	     -7.38270053	      7.06910486	      8.78030416	      2.17134937	      0.99478307	      1.07486507	     -4.63014300	     -9.48218312	    -13.07009719	     70.89559687	      1.23736159	     -7.40524584	     -9.05973941	      0.00000000	     30.60566555	     13.38892049	     -4.58272070	     20.53946051	      0.35848121	      5.22252834	      5.22594935	      0.00000000
      7.52666667	     -6.67652802	      7.39837981	      9.50753707	      2.16955690	      0.99075378	      1.07417784	     -3.96639120	    -10.03170461	    -13.36806868	     74.69481460	      1.30367045	     -6.94776025	     -9.71820778	      0.00000000	     30.30114858	     13.89696623	     -4.15903440	     23.59686555	      0.41184300	      4.97310725	      4.07675163	      0.00000000
      7.53333333	     -7.06615278	      7.50591334	     10.13209428	      2.16710578	      0.98496511	      1.07351842	     -1.77442574	    -10.67384661	    -13.37421729	     78.83473658	      1.37592572	     -6.17014005	    -10.03430785	      0.00000000	     31.28643249	     14.31486724	     -3.67156546	     26.87980219	      0.46914105	      5.06070694	      2.45113688	      0.00000000
      7.54000000	     -6.99484383	      7.69489805	     10.63717847	      2.16487592	      0.97988715	      1.07302731	     -0.09601296	    -11.31469194	    -13.28290217	     82.65744659	      1.44264459	     -5.50637701	    -10.47727179	      0.00000000	     31.62467177	     14.71540469	     -3.24813915	     30.05851245	      0.52462001	      5.68467421	      1.09150526	      0.00000000
      7.54666667	     -6.97973397	      7.87022933	     11.00558649	      2.16254755	      0.97485846	      1.07271683	      1.76846373	    -11.97843260	    -12.99601476	     86.34552242	      1.50701366	     -4.81388751	    -10.85528926	      0.00000000	     31.93032405	     15.04385502	     -2.93818945	     33.13947607	      0.57839297	      6.75806746	     -0.04543835	      0.00000000
      7.55333333	     -6.99961756	      7.99364948	     11.30086684	      2.16020335	      0.97003201	      1.07246868	      3.77303594	    -12.61026850	    -12.58460016	     89.83566135	      1.56792808	     -4.10384694	    -11.09474972	      0.00000000	     32.14309235	     15.28543288	     -2.67184475	     36.05445534	      0.62926896	      8.25100292	     -0.88071976	      0.00000000
      7.56000000	     -7.08259485	      8.15420767	     11.43134880	      2.15784862	      0.96547176	      1.07244995	      5.97914662	    -13.28722241	    -11.92863521	     93.14867155	      1.62575101	     -3.36135619	    -11.25303973	      0.00000000	     32.24138840	     15.46614874	     -2.54428777	     38.66220125	      0.67478271	     10.04360743	     -1.39720817	      0.00000000
      7.56666667	     -7.16006620	      8.31070819	     11.47271972	      2.15554486	      0.96135487	      1.07254535	      8.28029685	    -13.93964920	    -11.12770786	     96.20312520	      1.67906129	     -2.62192585	    -11.30367175	      0.00000000	     32.13359206	     15.56409715	     -2.47966872	     40.95773795	      0.71484738	     12.03427483	     -1.58146616	      0.00000000
      7.57333333	     -7.22126100	      8.42678732	     11.48738700	      2.15331844	      0.95774037	      1.07269599	     10.63615849	    -14.52613356	    -10.27559368	     98.96377874	      1.72724378	     -1.84090308	    -11.12320318	      0.00000000	     31.79686535	     15.58088779	     -2.37586999	     42.91878684	      0.74907414	     14.13223793	     -1.48520163	      0.00000000
      7.58000000	     -7.22533428	      8.56162287	     11.40896896	      2.15125850	      0.95477371	      1.07302124	     13.00713928	    -15.06115150	     -9.29349629	    101.40488177	      1.76984906	     -1.08154797	    -10.91569844	      0.00000000	     31.15199971	     15.52688623	     -2.30017253	     44.47549336	      0.77624380	     16.26429424	     -1.14101737	      0.00000000
      7.58666667	     -7.17859348	      8.65743093	     11.28653608	      2.14935647	      0.95245229	      1.07341902	     15.37195249	    -15.48984906	     -8.27737735	    103.50084048	      1.80643044	     -0.32297172	    -10.59374034	      0.00000000	     30.23030957	     15.36967460	     -2.21879631	     45.66692811	      0.79703825	     18.35178316	     -0.58280583	      0.00000000
      7.59333333	     -6.89848114	      8.69015765	     11.17191781	      2.14773220	      0.95110339	      1.07381831	     17.44944713	    -15.76183957	     -7.37178335	    105.16152128	      1.83541479	      0.36192781	    -10.29854124	      0.00000000	     28.80495065	     15.14300464	     -1.93080932	     46.45047402	      0.81071371	     20.30366816	     -0.13328000	      0.00000000
      7.60000000	     -6.95056484	      8.67788706	     10.92030179	      2.14624420	      0.94981379	      1.07443420	     20.00668804	    -15.92836561	     -6.26740507	    106.56522741	      1.85991409	      1.12116547	     -9.85112376	      0.00000000	     27.59179776	     14.71404747	     -2.05575794	     46.95416134	      0.81950471	     22.16841289	      1.03479236	      0.00000000
      7.60666667	     -6.73788786	      8.59660967	     10.65284444	      2.14512544	      0.94957840	      1.07501138	     22.18458793	    -15.92016973	     -5.32664436	    107.50842073	      1.87637592	      1.82965562	     -9.41647412	      0.00000000	     25.85363336	     14.23068622	     -1.96247577	     47.04087368	      0.82101813	     23.76272750	      1.89270529	      0.00000000
      7.61333333	     -6.58292848	      8.42014254	     10.36476877	      2.14425763	      0.94986838	      1.07560695	     24.37411677	    -15.74355056	     -4.47832068	    108.06820093	      1.88614592	      2.49250560	     -9.06889297	      0.00000000	     24.01544741	     13.61825840	     -1.92740718	     46.82045043	      0.81717102	     25.16890496	      2.91813828	      0.00000000
      7.62000000	     -6.41757886	      8.17363373	     10.00320516	      2.14378218	      0.95081443	      1.07622912	     26.46164593	    -15.41728409	     -3.71499819	    108.22742653	      1.88892493	      3.12932804	     -8.73001807	      0.00000000	     21.98466753	     12.93671806	     -1.87855931	     46.24115274	      0.80706037	     26.22461599	      3.81125961	      0.00000000
      7.62666667	     -6.55638793	      7.76476555	      9.99582217	      2.14357412	      0.95210817	      1.07615443	     28.62397506	    -15.14528143	     -3.43680131	    107.95483369	      1.88416729	      3.55011301	     -8.65458839	      0.00000000	     20.10758784	     12.39753589	     -1.25698770	     45.34013951	      0.79133472	     26.83647479	      4.19485118	      0.00000000
      7.63333333	     -6.13624345	      7.30289922	      9.26039402	      2.14380693	      0.95448237	      1.07745229	     30.27758448	    -14.19622444	     -2.74054120	    107.33867767	      1.87341334	      4.30696516	     -8.40103216	      0.00000000	     17.59872586	     11.18369089	     -1.84789680	     44.25897835	      0.77246490	     27.56428549	      5.82445738	      0.00000000
      7.64000000	     -6.25961580	      6.86787931	      8.80125903	      2.14417955	      0.95671964	      1.07799315	     32.29595731	    -13.52695165	     -2.28579533	    106.41929461	      1.85736708	      4.89194083	     -8.25550021	      0.00000000	     15.51236784	     10.47449434	     -1.69826863	     42.83971874	      0.74769414	     27.68069443	      6.21108942	      0.00000000
      7.64666667	     -6.71852033	      6.35334442	      8.51564291	      2.14478492	      0.95900558	      1.07825950	     34.47938155	    -12.88488038	     -2.09046855	    105.18062483	      1.83574821	      5.42149500	     -8.16028147	      0.00000000	     13.72468052	      9.86189251	     -1.25920696	     41.29017854	      0.72064956	     27.59716048	      6.73533946	      0.00000000
